<?xml version="1.0" standalone="no"?>
<!DOCTYPE svg PUBLIC "-//W3C//DTD SVG 20010904//EN"
 "http://www.w3.org/TR/2001/REC-SVG-20010904/DTD/svg10.dtd">
<svg version="1.0" xmlns="http://www.w3.org/2000/svg"
 width="500.000000pt" height="500.000000pt" viewBox="0 0 500.000000 500.000000"
 preserveAspectRatio="xMidYMid meet">
<metadata>
Created by potrace 1.14, written by Peter Selinger 2001-2017
</metadata>
<g transform="translate(0.000000,500.000000) scale(0.100000,-0.100000)"
fill="#000000" stroke="none">
<path d="M2227 3228 c-102 -22 -149 -82 -149 -190 0 -119 74 -188 201 -188
138 1 211 70 211 200 0 66 -23 115 -68 145 -51 34 -131 47 -195 33z"/>
<path d="M3314 2711 c-22 -9 -56 -27 -75 -40 -37 -25 -92 -96 -92 -117 0 -8
-4 -14 -9 -14 -4 0 -8 37 -8 83 l0 83 -250 0 c-230 -1 -250 -2 -250 -18 0 -14
11 -18 57 -20 l57 -3 1 -448 c0 -261 -4 -451 -9 -455 -5 -3 -31 -5 -58 -5 -41
1 -48 -2 -48 -18 0 -15 7 -19 35 -19 19 0 103 -1 185 -1 449 0 428 0 426 19
-2 14 -14 17 -62 18 -32 1 -65 2 -72 3 -9 1 -12 68 -11 304 1 331 7 388 48
468 11 21 32 52 47 68 46 52 131 65 152 23 10 -18 -3 -83 -16 -81 -4 1 -21 1
-38 0 -28 -1 -33 -6 -41 -39 -11 -41 2 -104 27 -139 20 -27 73 -53 113 -55
129 -4 197 60 202 190 3 105 -31 169 -112 207 -49 23 -146 26 -199 6z"/>
<path d="M4046 2722 c-2 -1 -23 -5 -47 -8 -24 -3 -51 -8 -59 -11 -8 -3 -19 -7
-25 -9 -63 -16 -133 -70 -160 -123 -34 -67 -25 -173 19 -224 33 -38 119 -59
181 -44 94 23 138 76 136 163 -1 67 -14 94 -41 89 -42 -8 -50 84 -12 119 21
18 79 27 109 15 26 -10 49 -50 58 -104 13 -77 14 -375 2 -376 -7 0 -57 -3
-112 -5 -256 -9 -375 -62 -406 -178 -23 -85 4 -207 55 -255 63 -60 228 -88
341 -60 51 13 104 57 126 107 l13 29 18 -36 c38 -76 129 -112 276 -108 82 2
104 7 140 27 67 38 104 118 115 248 3 35 1 42 -12 40 -9 -2 -17 -14 -18 -28
-3 -52 -15 -106 -31 -140 -14 -28 -24 -36 -50 -38 -54 -5 -60 22 -60 318 0
302 -4 353 -40 432 -39 86 -128 142 -247 155 -53 6 -265 10 -269 5z m169 -684
c-3 -151 -8 -180 -42 -225 -17 -24 -30 -32 -46 -29 -12 3 -25 5 -29 5 -25 3
-33 246 -9 305 18 45 57 76 95 76 l34 0 -3 -132z"/>
<path d="M240 2688 c0 -14 9 -18 35 -19 19 -1 40 -2 46 -3 7 0 24 -39 39 -86
16 -47 70 -213 120 -370 51 -157 107 -330 125 -385 26 -80 37 -101 54 -105 12
-3 75 -4 141 -2 l119 3 10 32 c52 168 73 238 75 249 1 7 4 18 8 23 3 6 9 26
13 45 4 19 11 40 15 45 5 6 8 13 8 18 1 19 15 73 22 82 5 6 9 15 9 20 3 34 15
76 22 81 5 3 7 9 4 14 -3 5 -2 11 3 14 5 3 9 0 9 -7 1 -14 173 -610 178 -615
4 -4 276 -4 280 0 2 2 24 82 49 178 25 96 67 254 92 350 67 253 95 363 99 383
6 30 16 38 43 37 45 -3 52 -1 52 18 0 17 -11 19 -137 18 -123 -1 -138 -3 -141
-19 -2 -12 3 -17 20 -18 119 -3 123 -4 119 -19 -2 -8 -14 -53 -26 -100 -13
-47 -39 -146 -58 -220 -20 -74 -43 -162 -52 -195 -10 -33 -23 -82 -30 -110 -7
-27 -14 -47 -15 -42 -2 4 -3 10 -5 15 -1 4 -4 14 -8 22 -3 8 -24 87 -47 175
-37 141 -45 171 -53 210 -2 6 -6 16 -10 23 -5 6 -6 16 -2 21 3 5 1 12 -5 16
-5 3 -10 17 -10 31 0 14 -4 33 -10 43 -5 10 -11 29 -14 42 -2 13 -8 39 -12 57
-6 32 -6 32 33 32 30 0 39 4 40 18 1 17 -14 18 -262 17 -145 0 -267 -4 -272
-9 -13 -12 25 -34 51 -29 22 5 26 0 36 -38 32 -119 40 -184 28 -229 -22 -76
-43 -144 -59 -187 -10 -29 -16 -53 -13 -53 4 0 1 -7 -6 -15 -7 -8 -9 -15 -5
-15 4 0 1 -7 -6 -17 -8 -9 -12 -17 -10 -17 2 -1 -4 -29 -14 -64 -18 -64 -23
-69 -30 -36 -2 11 -34 127 -70 259 -37 132 -68 247 -70 256 -2 8 -10 40 -19
69 -25 85 -24 90 32 89 68 -2 72 -1 72 16 0 19 25 18 -327 19 -284 1 -303 0
-303 -16z"/>
<path d="M1967 2695 c-9 -23 6 -30 62 -28 l60 2 0 -455 c-1 -339 -4 -454 -12
-455 -7 -1 -32 -1 -57 -1 -38 -1 -46 -4 -47 -19 -1 -15 5 -19 28 -19 16 0 103
-1 194 -1 420 0 397 -1 393 19 -2 12 -14 17 -43 18 -22 1 -47 2 -56 3 -14 1
-15 50 -15 474 l0 472 -252 0 c-161 0 -253 -3 -255 -10z"/>
</g>
</svg>
